<svg width="18" height="18" viewBox="0 0 18 18" fill="none" xmlns="http://www.w3.org/2000/svg">
<path fill-rule="evenodd" clip-rule="evenodd" d="M17.5333 8.65993C17.5333 9.23702 17.4746 9.81331 17.3592 10.3751C17.2467 10.9235 17.08 11.4619 16.8617 11.9766C16.6483 12.4822 16.3837 12.9694 16.0745 13.4237C15.77 13.8752 15.4191 14.2988 15.0337 14.6849C14.6474 15.0693 14.2224 15.4192 13.7711 15.7251C13.3152 16.0322 12.8273 16.2964 12.3215 16.5107C11.806 16.7279 11.2664 16.8943 10.7184 17.0066C10.1559 17.1223 9.57755 17.1814 8.99962 17.1814C8.42126 17.1814 7.8429 17.1223 7.28121 17.0066C6.73244 16.8943 6.19283 16.7279 5.67779 16.5107C5.17195 16.2964 4.68357 16.0322 4.22772 15.7251C3.77645 15.4193 3.35143 15.0693 2.96599 14.6849C2.58015 14.2988 2.22928 13.8752 1.92427 13.4237C1.61675 12.9694 1.35172 12.4821 1.13755 11.9766C0.919183 11.4619 0.752114 10.9234 0.639188 10.3751C0.525025 9.81331 0.466675 9.23702 0.466675 8.65993C0.466675 8.08241 0.524992 7.50488 0.639221 6.94436C0.752147 6.39595 0.919216 5.85672 1.13759 5.34286C1.35175 4.83691 1.61678 4.34927 1.9243 3.89488C2.22931 3.44302 2.58018 3.02025 2.96602 2.6337C3.35146 2.24922 3.77648 1.90015 4.22775 1.59475C4.6836 1.28641 5.17198 1.02223 5.67783 0.807505C6.19286 0.589849 6.73244 0.423021 7.28124 0.311525C7.84294 0.196694 8.4213 0.138428 8.99966 0.138428C9.57758 0.138428 10.1559 0.196694 10.7185 0.311525C11.2664 0.423055 11.806 0.589882 12.3215 0.807505C12.8273 1.02219 13.3153 1.28641 13.7711 1.59475C14.2224 1.90015 14.6475 2.24922 15.0337 2.6337C15.4191 3.02025 15.77 3.44302 16.0746 3.89488C16.3837 4.34927 16.6483 4.83694 16.8617 5.34286C17.08 5.85672 17.2467 6.39595 17.3592 6.94436C17.4746 7.50488 17.5333 8.08241 17.5333 8.65993ZM5.89026 2.07781C3.85805 3.03608 2.34131 4.90597 1.86836 7.1595C2.06048 7.16117 5.0973 7.19946 8.59622 6.27114C7.33492 4.03341 5.98735 2.20725 5.89026 2.07781ZM9.2 7.39171C5.44774 8.51344 1.84711 8.43273 1.71795 8.42776C1.71585 8.50597 1.71211 8.58168 1.71211 8.65992C1.71211 10.5294 2.41839 12.2337 3.57929 13.5223C3.57678 13.5186 5.57108 9.98557 9.50377 8.71569C9.59876 8.68407 9.69546 8.65575 9.79128 8.6283C9.60838 8.21474 9.40875 7.8003 9.2 7.39171ZM13.8124 3.19835C12.5293 2.06864 10.8447 1.38339 8.9996 1.38339C8.40748 1.38339 7.83286 1.45496 7.28242 1.58727C7.39157 1.73375 8.76042 3.54704 10.0067 5.83216C12.7565 4.80278 13.7944 3.22496 13.8124 3.19835ZM10.288 9.83412C10.2718 9.83949 10.2556 9.84413 10.2397 9.84993C5.93997 11.3467 4.53583 14.3632 4.52064 14.3961C5.75781 15.3568 7.30956 15.9365 8.99965 15.9365C10.0088 15.9365 10.9701 15.7313 11.8448 15.3598C11.7368 14.724 11.3135 12.4954 10.288 9.83412ZM13.0719 14.6949C14.7082 13.5922 15.8703 11.8414 16.1945 9.81328C16.0445 9.76502 14.0057 9.12049 11.6535 9.49707C12.6093 12.1201 12.9977 14.2563 13.0719 14.6949ZM10.5676 6.91651C10.7368 7.26353 10.9006 7.61673 11.0518 7.9717C11.1056 8.09904 11.1581 8.22388 11.2093 8.34868C13.7128 8.0341 16.1792 8.56337 16.2846 8.58498C16.2679 6.85991 15.65 5.27668 14.6275 4.03718C14.6137 4.05669 13.4449 5.74311 10.5676 6.91651Z" fill="white"/>
</svg>
