<svg width="48" height="48" viewBox="0 0 48 48" fill="none" xmlns="http://www.w3.org/2000/svg">
<path d="M24.9036 18.3939L24.9033 23.4168V23.4168V23.4752C24.9033 23.5918 24.9184 23.7048 24.9466 23.8125L24.8988 24.6303L24.8962 24.6742C24.885 24.8659 24.8103 25.0335 24.6842 25.1598L26.1268 24.2149C26.0445 24.2014 25.9624 24.1722 25.8806 24.1277L25.4844 23.9119V23.4752V23.4168V18.3939M24.9036 18.3939V18.3938L25.194 18.3939L25.4844 18.3939M24.9036 18.3939C24.9036 18.5543 25.0338 18.6843 25.194 18.6843C25.3544 18.6843 25.4844 18.554 25.4844 18.3939M24.9036 18.3939H25.194H25.4844M19.2833 17.9449L19.2833 17.9449L19.2833 17.9449ZM19.2833 17.9449C19.0703 18.316 18.5586 18.4545 18.1849 18.2399L19.2833 17.9449ZM17.8522 18.8176L17.8516 18.8172C17.5772 18.6588 17.3794 18.3994 17.2976 18.0954L17.2974 18.0949L17.2974 18.0948L17.297 18.0933C17.2304 17.8428 17.2473 17.5807 17.3431 17.3432V17.1486C17.1722 17.4436 17.1265 17.7878 17.2149 18.117C17.3028 18.4459 17.5141 18.7208 17.8095 18.8921L17.8522 18.8176ZM25.0957 25.571L25.1558 25.631L25.0957 25.571L25.095 25.5717C24.8442 25.822 24.5077 25.9601 24.1545 25.9601C24.1545 25.9601 24.1545 25.9601 24.1545 25.9601C23.6743 25.9601 23.2532 25.7049 23.0194 25.323C22.9954 25.3353 22.9711 25.3471 22.9465 25.3586L25.0957 25.571ZM17.9195 17.4836C17.8377 17.6253 17.8166 17.7867 17.8587 17.944C17.8587 17.944 17.8588 17.9441 17.8588 17.9441L17.8588 17.9443L17.859 17.9449C17.9007 18.1012 17.9992 18.2308 18.142 18.3142C18.142 18.3143 18.1421 18.3143 18.1421 18.3143L17.9195 17.4836Z" fill="#4CAF4F" stroke="#4CAF4F" stroke-width="1.33333"/>
<path d="M16.1252 30.7918C15.9467 30.8993 15.7158 30.8413 15.6091 30.663C15.5021 30.4849 15.5601 30.2537 15.7379 30.1468L16.1252 30.7918ZM11.7469 26.4271C11.7615 26.4007 11.7752 26.3761 11.7879 26.3532C11.8391 26.2609 11.8738 26.1984 11.8878 26.1733L11.9636 26.2132C11.9167 26.2976 11.8708 26.3803 11.8257 26.4615C11.7993 26.4516 11.773 26.4402 11.7469 26.4271ZM22.1554 28.7211C22.3076 28.6297 22.415 28.4851 22.4579 28.3133C22.5007 28.1418 22.4741 27.9635 22.3829 27.8113L22.1554 28.7211Z" fill="#4CAF4F" stroke="#4CAF4F" stroke-width="1.33333"/>
<path d="M27.8527 28.0933C27.7587 28.035 27.6732 27.966 27.5976 27.888L26.8782 27.5117L26.8782 27.5116L26.8381 27.4907C26.7243 27.4311 26.6083 27.4029 26.4965 27.4026L27.8527 28.0933ZM26.1717 26.862C26.1718 26.862 26.1719 26.8619 26.1721 26.8619L26.2275 27.0842L26.2275 27.0842L26.3126 27.4256L26.3125 27.4256L26.1717 26.862ZM30.3872 33.7857C30.387 33.7856 30.3869 33.7855 30.3867 33.7854L30.3872 33.7857ZM25.845 30.1872L25.8464 30.188L25.845 30.1872Z" fill="#4CAF4F" stroke="#4CAF4F" stroke-width="1.33333"/>
</svg>
