<svg width="48" height="48" viewBox="0 0 48 48" fill="none" xmlns="http://www.w3.org/2000/svg">
<path d="M5.5 16.5V17H6H42H42.5V16.5V14.25C42.5 13.1228 42.0522 12.0418 41.2552 11.2448C40.4582 10.4478 39.3772 10 38.25 10H9.75C8.62283 10 7.54183 10.4478 6.7448 11.2448C5.94777 12.0418 5.5 13.1228 5.5 14.25V16.5ZM42.5 19.5V19H42H6H5.5V19.5V33.75C5.5 34.8772 5.94777 35.9582 6.7448 36.7552C7.54183 37.5522 8.62283 38 9.75 38H38.25C39.3772 38 40.4582 37.5522 41.2552 36.7552C42.0522 35.9582 42.5 34.8772 42.5 33.75V19.5ZM3.5 14.25C3.5 12.5924 4.15848 11.0027 5.33058 9.83058C6.50268 8.65848 8.0924 8 9.75 8H38.25C39.9076 8 41.4973 8.65848 42.6694 9.83058C43.8415 11.0027 44.5 12.5924 44.5 14.25V33.75C44.5 35.4076 43.8415 36.9973 42.6694 38.1694C41.4973 39.3415 39.9076 40 38.25 40H9.75C8.0924 40 6.50268 39.3415 5.33058 38.1694C4.15848 36.9973 3.5 35.4076 3.5 33.75V14.25ZM31.5 29H36C36.2652 29 36.5196 29.1054 36.7071 29.2929C36.8946 29.4804 37 29.7348 37 30C37 30.2652 36.8946 30.5196 36.7071 30.7071C36.5196 30.8946 36.2652 31 36 31H31.5C31.2348 31 30.9804 30.8946 30.7929 30.7071C30.6054 30.5196 30.5 30.2652 30.5 30C30.5 29.7348 30.6054 29.4804 30.7929 29.2929C30.9804 29.1054 31.2348 29 31.5 29Z" fill="#4CAF4F" stroke="#4CAF4F"/>
</svg>
