<svg width="48" height="48" viewBox="0 0 48 48" fill="none" xmlns="http://www.w3.org/2000/svg">
<g clip-path="url(#clip0_211_827)">
<path d="M44.9965 13.4115C44.9965 13.4453 44.9965 13.4876 44.9877 13.5129C44.9437 13.8426 44.9437 14.1723 44.9701 14.5105C44.9877 14.595 45.0053 14.6795 45.0758 14.7472C45.1903 14.874 45.3664 14.8486 45.4369 14.6964C45.4722 14.6204 45.4722 14.5443 45.4545 14.4682C45.3664 14.147 45.3488 13.8088 45.34 13.4791C45.34 13.4622 45.34 13.4369 45.34 13.4115C45.4369 13.4031 45.525 13.3946 45.6042 13.3946C45.6659 13.3861 45.7188 13.3777 45.7628 13.3523C45.8949 13.2847 45.8949 13.141 45.754 13.0734C45.7011 13.048 45.6307 13.0396 45.569 13.0396C45.3488 13.048 45.1287 13.048 44.9084 13.048C44.8292 13.048 44.7499 13.0565 44.6706 13.0649C44.6266 13.0734 44.5737 13.0734 44.5385 13.0987C44.4768 13.1241 44.4417 13.1664 44.4417 13.2255C44.4504 13.2847 44.4768 13.3185 44.5385 13.3439C44.5737 13.3692 44.6178 13.3777 44.6618 13.3777C44.7675 13.3861 44.882 13.4031 44.9965 13.4115ZM47.4186 13.8004C47.4186 13.8088 47.4274 13.8173 47.4274 13.8173C47.4627 14.0455 47.4979 14.2653 47.5243 14.4851C47.5332 14.5612 47.542 14.6288 47.5948 14.688C47.7093 14.8317 47.8855 14.8148 47.9647 14.6626C48 14.5865 48.0087 14.5105 47.9912 14.4259C47.9383 14.1723 47.9119 13.9187 47.859 13.6736C47.8238 13.5214 47.7798 13.3777 47.7357 13.2424C47.7093 13.1579 47.6477 13.0987 47.542 13.0903C47.4363 13.0734 47.357 13.1241 47.3129 13.2002C47.2601 13.2678 47.2161 13.3354 47.1808 13.4115C47.1192 13.5468 47.0663 13.682 46.9959 13.8088C46.987 13.8426 46.9782 13.868 46.9606 13.8934C46.9519 13.8764 46.9431 13.868 46.9431 13.868C46.8285 13.6567 46.7228 13.4453 46.6083 13.2424C46.5907 13.2255 46.5819 13.2086 46.5731 13.1917C46.5203 13.1156 46.4586 13.0734 46.3617 13.0734C46.2736 13.0818 46.2031 13.1325 46.1592 13.2086C46.1415 13.2424 46.1415 13.2678 46.1327 13.3016C46.0975 13.5721 46.0534 13.8426 46.0182 14.1131C46.0006 14.2653 45.9918 14.4175 45.9918 14.5696C45.983 14.6034 45.9918 14.6457 46.0094 14.6795C46.027 14.7471 46.0799 14.7894 46.1503 14.7979C46.2384 14.8063 46.3 14.781 46.3265 14.7133C46.3529 14.6626 46.3617 14.6204 46.3705 14.5781C46.4058 14.4259 46.4322 14.2822 46.4586 14.1385C46.4762 14.054 46.485 13.9863 46.5115 13.8934C46.5291 13.9272 46.5466 13.9525 46.5643 13.9779C46.6435 14.0793 46.7228 14.1808 46.8197 14.2653C46.9166 14.3329 46.9959 14.3245 47.0751 14.2484C47.0928 14.2315 47.1016 14.223 47.1192 14.2061C47.1985 14.0878 47.2954 13.9694 47.3746 13.8511C47.3922 13.8342 47.401 13.8173 47.4186 13.8004Z" fill="#3A3B7B"/>
<path d="M27.1244 13.5776C27.0632 13.7383 27.0515 13.854 27.0798 13.9502C27.111 14.081 27.192 14.1238 27.302 14.0906C28.3366 13.845 30.6051 14.542 31.445 14.7362C31.6431 14.777 31.8042 14.5316 31.6691 14.3115C31.4718 14.0985 29.2043 13.1862 28.3391 13.1364C27.9999 13.118 27.3936 13.0346 27.1244 13.5776Z" fill="#3A3B7B"/>
<path d="M35.9904 10.6244C36.1006 10.6854 36.1622 10.7437 36.1927 10.8088C36.238 10.8942 36.2141 10.9533 36.1379 10.9834C35.4541 11.3037 34.5441 12.6828 34.1768 13.1585C34.0877 13.2679 33.8823 13.2043 33.8513 13.0244C33.8577 12.8209 34.6643 11.3243 35.1145 10.9167C35.2915 10.7575 35.5837 10.4453 35.9904 10.6244Z" fill="#3A3B7B"/>
<path d="M30.5445 9.94553C30.6769 9.84971 30.8146 9.81614 30.8849 9.87841C31.9167 10.7253 32.4638 12.0664 32.8026 13.2942C32.8154 13.3228 32.8162 13.3639 32.806 13.4067C32.8017 13.4433 32.7739 13.482 32.7296 13.5119C32.6824 13.5449 32.6417 13.555 32.6225 13.5265C32.1703 12.9362 29.5875 10.6393 30.5445 9.94553Z" fill="#3A3B7B"/>
<path d="M8.69524 24.6286C8.94253 24.4519 9.21137 24.3048 9.49586 24.1906C9.7935 24.109 10.1107 24.1225 10.3997 24.2293C10.6885 24.336 10.9334 24.5301 11.0971 24.7823C11.2435 25.0338 11.3008 25.3242 11.2604 25.6097C11.2199 25.8952 11.084 26.1603 10.8729 26.3652C10.7093 26.5313 10.5235 26.676 10.3205 26.7956C9.41582 27.3565 8.50308 27.8867 7.59039 28.4476C7.40363 28.588 7.20551 28.714 6.99793 28.8242C6.68217 28.9753 6.32132 29.0158 5.97776 28.9386C5.6342 28.8615 5.32955 28.6715 5.11648 28.4016C4.95719 28.2104 4.82277 28.0014 4.71616 27.7791C3.8515 26.0348 2.95481 24.2982 2.12217 22.5231C1.73787 21.7548 1.42563 20.8711 1.12139 20.0181C0.989767 19.7703 0.964063 19.483 1.04976 19.2173C1.13545 18.9515 1.32577 18.7284 1.58025 18.5952C1.83473 18.4621 2.13327 18.4295 2.4124 18.5044C2.69152 18.5793 2.92921 18.7557 3.0749 18.9961C3.52271 19.5673 3.91911 20.174 4.25981 20.8096C5.12448 22.3464 5.94912 23.8832 6.78176 25.374C6.83024 25.4564 6.8837 25.5358 6.94188 25.6122C7.56859 25.3593 8.15803 25.0286 8.69524 24.6286Z" fill="#3A3B7B"/>
<path d="M17.6354 24.0925C15.6579 26.3132 12.3433 25.7522 10.678 22.8937C9.49308 20.8651 9.28493 17.5148 11.8629 15.4017C12.4135 14.9593 13.0717 14.6579 13.7764 14.5257C14.6404 14.4068 15.5214 14.5531 16.2936 14.9437C17.0657 15.3342 17.6895 15.9491 18.0757 16.7003C19.4848 19.1592 19.2847 22.2943 17.6354 24.0925ZM16.8347 18.9133C16.6247 18.3091 16.2032 17.7932 15.6418 17.4533C15.3242 17.236 14.9382 17.1304 14.5489 17.1542C14.1595 17.178 13.7906 17.3297 13.5042 17.584C12.3593 18.5599 12.1191 20.8728 12.9517 22.2483C13.0579 22.4726 13.2137 22.6719 13.4085 22.8323C13.6033 22.9927 13.8323 23.1104 14.0793 23.1769C14.3264 23.2436 14.5857 23.2575 14.839 23.2179C15.0923 23.1782 15.3335 23.086 15.5458 22.9475C16.1664 22.4857 16.6217 21.8498 16.8484 21.1282C17.0751 20.4066 17.062 19.6351 16.8108 18.921L16.8347 18.9133Z" fill="#3A3B7B"/>
<path d="M25.7055 19.8816C25.5031 19.9234 25.294 19.9259 25.0904 19.8889C24.887 19.8519 24.6932 19.7763 24.5207 19.6665C24.3697 19.5836 24.2397 19.4696 24.14 19.3327C24.0405 19.1958 23.9737 19.0395 23.9446 18.8748C23.9155 18.7103 23.9248 18.5415 23.9718 18.3808C24.0188 18.22 24.1024 18.0713 24.2164 17.9452C24.4152 17.6918 24.6973 17.5105 25.0171 17.4304C25.8518 17.1978 26.7112 17.0561 27.579 17.0078C27.7697 16.9865 27.9629 17.002 28.1472 17.0533C28.3316 17.1047 28.5033 17.1909 28.6525 17.3069C28.8016 17.4228 28.9252 17.5662 29.0158 17.7286C29.1064 17.891 29.1623 18.0692 29.1802 18.2526C29.4304 19.1536 29.4578 20.0982 29.2603 21.0112C28.5398 23.9619 26.0578 24.9762 23.2717 24.031C22.4896 23.7783 21.8039 23.3075 21.3022 22.6786C20.633 21.9214 20.1586 21.0239 19.9171 20.0584C19.7214 19.1986 19.7428 18.3064 19.9797 17.4563C20.2164 16.6061 20.6616 15.8226 21.2781 15.1712C21.8632 14.4633 22.6226 13.9061 23.4879 13.5499C24.0346 13.2606 24.6744 13.1784 25.2813 13.3194C25.4189 13.3559 25.5439 13.4272 25.6432 13.5257C25.7425 13.6243 25.8125 13.7465 25.846 13.8798C25.8795 14.013 25.8752 14.1525 25.8336 14.2836C25.792 14.4148 25.7147 14.5329 25.6095 14.6257C25.4096 14.7994 25.1924 14.9538 24.961 15.0867C24.2492 15.5218 23.6298 16.0823 23.1356 16.7388C22.8116 17.1636 22.5885 17.6514 22.482 18.1678C22.3755 18.6842 22.3881 19.2167 22.5191 19.728C22.7007 20.425 23.1036 21.0507 23.672 21.5183C25.4333 23.0552 27.7231 21.5721 27.3228 19.4743C26.7384 19.6127 26.226 19.7587 25.7055 19.8816Z" fill="#3A3B7B"/>
<path d="M36.466 24.2154C33.864 25.7523 30.9017 24.2154 30.2532 20.9881C29.7809 18.6829 30.6776 15.4556 33.816 14.2261C34.4838 13.9701 35.208 13.8803 35.9216 13.9648C36.779 14.1155 37.5655 14.5206 38.1702 15.123C38.7748 15.7255 39.1674 16.4949 39.2922 17.3228C39.8206 20.066 38.6197 22.9937 36.466 24.2154ZM37.3708 19.044C37.37 18.4057 37.1347 17.788 36.7062 17.2997C36.4772 16.9977 36.1461 16.7814 35.7695 16.6874C35.3927 16.5936 34.9938 16.628 34.6406 16.7849C33.2315 17.3689 32.2388 19.4897 32.5991 21.0496C32.6266 21.2944 32.7094 21.5305 32.8419 21.7414C32.9744 21.9522 33.1532 22.1327 33.366 22.2703C33.5787 22.4079 33.8202 22.4992 34.0736 22.5379C34.327 22.5766 34.5861 22.5617 34.8328 22.4942C35.5776 22.2445 36.2225 21.7778 36.6774 21.1592C37.1325 20.5407 37.3749 19.8012 37.3708 19.044Z" fill="#3A3B7B"/>
<path d="M41.9235 24.8609C41.8843 25.1421 41.7302 25.3969 41.4952 25.5691C41.2602 25.7413 40.9636 25.8169 40.6706 25.7792C40.3776 25.7415 40.1122 25.5936 39.9328 25.368C39.7533 25.1425 39.6746 24.8578 39.7139 24.5766C39.7531 24.2953 39.9072 24.0406 40.1422 23.8684C40.3772 23.6962 40.6738 23.6206 40.9668 23.6583C41.2598 23.696 41.5252 23.8439 41.7047 24.0694C41.8841 24.295 41.9629 24.5797 41.9235 24.8609ZM41.227 14.495C41.3793 14.2718 41.6027 14.1018 41.8638 14.0104C42.125 13.919 42.4099 13.9111 42.6761 13.9878C42.9468 14.0528 43.1859 14.2051 43.3535 14.4191C43.5211 14.6331 43.607 14.8959 43.5969 15.1635C43.5616 15.5927 43.4947 16.0189 43.3967 16.4391C43.1325 17.8606 42.8763 19.2822 42.5961 20.6884C42.468 21.2494 42.2999 21.7872 42.1157 22.3558C42.0516 22.5336 41.9446 22.6942 41.8035 22.8246C41.7157 22.9227 41.6037 22.9979 41.4776 23.0433C41.3515 23.0888 41.2155 23.1029 41.0822 23.0845C40.949 23.0661 40.8226 23.0158 40.715 22.9381C40.6073 22.8604 40.5219 22.758 40.4665 22.6402C40.3713 22.4289 40.3196 22.2018 40.3143 21.9717C40.3143 21.0188 40.3143 20.0583 40.3784 19.0978C40.4872 17.727 40.7013 16.3657 41.0189 15.0252C41.0563 14.8456 41.1267 14.6738 41.227 14.518V14.495Z" fill="#3A3B7B"/>
<path fill-rule="evenodd" clip-rule="evenodd" d="M5.31263 31.0357C5.2181 31.2383 5.19218 31.4641 5.23837 31.6814C5.2691 31.9678 5.3366 32.2496 5.43933 32.5202C5.56759 32.8516 5.71111 33.1793 5.88807 33.5832C5.92876 33.6761 5.97129 33.7731 6.01579 33.8752C6.25443 34.4224 6.55386 35.1217 6.95326 36.1337C7.06631 36.4212 7.1667 36.7111 7.26779 37.003C7.30862 37.1209 7.34961 37.2392 7.39156 37.3577C7.54193 37.7793 7.80067 38.158 8.14364 38.4582C8.28927 38.6231 8.48244 38.7434 8.69904 38.8035C8.91988 38.8648 9.15474 38.8609 9.37323 38.7923C9.59171 38.7237 9.7836 38.5936 9.924 38.4189C10.0616 38.2476 10.1435 38.0412 10.1594 37.8255C10.2487 37.4054 10.2182 36.9698 10.071 36.5648C9.83745 35.8923 9.57136 35.2189 9.26452 34.5602L9.26311 34.5573C8.75833 33.5267 8.24523 32.5033 7.70784 31.4794L7.70382 31.4723C7.5465 31.2055 7.34206 30.9671 7.09967 30.7676C6.94232 30.5896 6.72526 30.4695 6.48556 30.4281C6.24076 30.3859 5.98827 30.4285 5.77319 30.5483C5.56972 30.6599 5.40843 30.8305 5.31263 31.0357Z" fill="#3A3B7B"/>
<path fill-rule="evenodd" clip-rule="evenodd" d="M13.0224 28.4981C12.2309 28.3014 11.4043 28.2727 10.6002 28.4142C9.97737 28.473 9.36482 28.6109 8.93947 28.884C8.72314 29.023 8.54823 29.2015 8.45094 29.4284C8.35311 29.6565 8.34063 29.9173 8.42079 30.208C8.56717 30.7404 8.75725 31.2581 8.94666 31.7741L8.97734 31.8576L8.97808 31.8595C9.54839 33.3585 10.1241 34.8525 10.7051 36.3413C10.7729 36.5759 10.8687 36.8023 10.9906 37.0158L10.9929 37.0197C11.154 37.2849 11.3606 37.5221 11.604 37.7214C11.7257 37.8309 11.8762 37.9067 12.0395 37.9406C12.2043 37.9747 12.3757 37.9648 12.535 37.9119C12.6944 37.8589 12.8356 37.765 12.9431 37.6403C13.049 37.5176 13.1182 37.3699 13.1437 37.2126C13.2487 36.7854 13.2151 36.3375 13.0472 35.9292C12.9948 35.7918 12.9537 35.6513 12.9104 35.5035C12.896 35.4542 12.8814 35.404 12.8659 35.3529C14.1958 34.854 15.6109 34.1831 16.1085 32.6224C16.3033 32.083 16.3195 31.499 16.1549 30.9504C15.9901 30.4012 15.6521 29.9144 15.1873 29.557C14.5548 29.0568 13.8159 28.6953 13.0224 28.4981ZM10.8285 30.4125C10.8547 30.4052 10.881 30.3985 10.9075 30.3922C11.7733 30.2616 12.6591 30.4357 13.4019 30.8823C13.7292 31.1007 13.8633 31.3435 13.8863 31.5771C13.9101 31.8176 13.8189 32.0782 13.6359 32.3287C13.2901 32.8019 12.6589 33.1807 12.0888 33.2513C11.6732 32.3326 11.2511 31.3768 10.8285 30.4125Z" fill="#3A3B7B"/>
<path d="M18.2991 26.8165C19.2417 26.3988 20.4092 26.3266 21.3228 26.6203C21.5529 26.6847 21.7525 26.8238 21.8876 27.0139C22.0217 27.2029 22.0836 27.4306 22.0629 27.6583C22.0616 27.806 22.0238 27.9514 21.9527 28.0826C21.8803 28.2161 21.7755 28.3309 21.6471 28.4174C21.5187 28.5038 21.3706 28.5594 21.2151 28.5792C21.0596 28.5991 20.9015 28.5828 20.754 28.5316L20.7428 28.5277L20.7322 28.5223C20.6568 28.4844 20.5766 28.4559 20.4937 28.4373L20.4884 28.4362C19.8457 28.2724 19.2395 28.5438 19.0181 28.8774C18.9125 29.0364 18.8994 29.197 18.9873 29.343C19.0815 29.4994 19.3126 29.675 19.7801 29.8001C19.9087 29.8339 20.0405 29.8666 20.1741 29.8998C20.5438 29.9917 20.928 30.0872 21.2995 30.2194L21.3009 30.22C23.0148 30.8458 23.653 32.1421 23.4345 33.3613C23.2184 34.5669 22.1693 35.6642 20.5916 35.923C20.0176 36.0451 19.4201 36.0213 18.8585 35.854C18.2954 35.6861 17.7879 35.3799 17.3863 34.9654L17.3758 34.9546C17.2491 34.7985 17.1638 34.615 17.126 34.4204C17.0912 34.2448 17.1095 34.0633 17.1787 33.8972C17.2474 33.7322 17.3637 33.5894 17.5138 33.4853C17.6723 33.3673 17.8634 33.2965 18.0634 33.2818C18.2628 33.2671 18.4623 33.3087 18.6373 33.4013C18.8121 33.4824 18.9748 33.5858 19.1207 33.7088L19.1235 33.711C19.3817 33.9377 19.6941 33.9968 19.9937 33.942C20.2977 33.8866 20.5835 33.7139 20.7673 33.4849C20.95 33.2573 21.0233 32.987 20.9363 32.7245C20.8487 32.4601 20.5854 32.164 20.007 31.9163C19.8558 31.8547 19.699 31.805 19.5359 31.7566C19.492 31.7436 19.4472 31.7306 19.402 31.7174C19.2814 31.6823 19.1573 31.6461 19.0357 31.6062C18.9519 31.5788 18.8687 31.5528 18.7864 31.5271C18.5614 31.4567 18.3421 31.3882 18.131 31.2963C17.6715 31.1461 17.2746 30.8578 16.9992 30.474C16.7227 30.0887 16.5836 29.628 16.6025 29.1605C16.604 28.0214 17.3515 27.2367 18.2991 26.8165Z" fill="#3A3B7B"/>
<path d="M30.2488 26.6953C30.066 26.6096 29.8639 26.5689 29.6607 26.5769C29.4575 26.585 29.2595 26.6414 29.0848 26.7412C28.9111 26.8403 28.7656 26.9792 28.6614 27.1453C28.5659 27.2852 28.4998 27.4417 28.4668 27.606C28.4338 27.7702 28.4346 27.9389 28.4691 28.1027C28.5031 28.3132 28.5408 28.5179 28.5781 28.7198C28.6398 29.0539 28.6998 29.3805 28.7394 29.7135L28.7409 29.7219C28.8311 30.2441 28.8783 30.7722 28.8825 31.3015L28.8829 31.309C28.9138 31.8805 28.7108 32.441 28.3177 32.8714L28.3115 32.879C28.1836 33.0363 28.0126 33.1564 27.8175 33.2258C27.6225 33.2952 27.4113 33.3112 27.2074 33.2719C27.0035 33.2326 26.815 33.1397 26.663 33.0034C26.511 32.8672 26.4013 32.6925 26.3466 32.5C26.2298 32.0942 26.1622 31.6768 26.145 31.2562L26.3445 28.207C26.3475 28.1672 26.3508 28.1264 26.3543 28.0851C26.3619 27.9925 26.3696 27.8982 26.3729 27.8102C26.3776 27.6808 26.3735 27.5476 26.3421 27.4216C26.31 27.2928 26.2488 27.1703 26.1403 27.066C26.0329 26.9627 25.8878 26.8865 25.7053 26.8346C25.3753 26.7429 25.0963 26.7458 24.8638 26.8405C24.6311 26.9353 24.4717 27.1111 24.3589 27.3142C24.247 27.5157 24.1751 27.7541 24.1207 27.993C24.0803 28.1702 24.0479 28.3563 24.0171 28.5334C24.0064 28.5944 23.996 28.6543 23.9855 28.7125L23.9852 28.7142C23.8203 29.6854 23.7712 30.6716 23.8389 31.6535C23.8515 32.1841 23.9668 32.7079 24.179 33.1981C24.4183 33.8305 24.8519 34.3785 25.4224 34.7697C25.9941 35.1616 26.6763 35.3776 27.3788 35.389C28.0812 35.4004 28.7707 35.2067 29.356 34.8336C29.9402 34.461 30.393 33.927 30.6545 33.3023C31.0202 32.5064 31.192 31.6409 31.1565 30.7717C31.135 30.1371 31.0991 29.4977 31.0633 28.8615C31.0457 28.5494 31.0281 28.238 31.0124 27.9284C31.0045 27.6181 30.8979 27.3175 30.7068 27.0669C30.5886 26.9086 30.4312 26.7808 30.2488 26.6953Z" fill="#3A3B7B"/>
<path d="M36.7174 31.4764C36.6988 31.499 36.6793 31.5224 36.6589 31.5467C36.5102 30.7236 36.3725 29.9008 36.2345 29.0768C36.185 28.7811 36.1352 28.4842 36.0852 28.1881L36.0796 28.1551L36.0613 28.1266C36.0269 28.0728 36.0234 28.0202 36.0234 27.9079V27.8949L36.0214 27.882C35.984 27.6501 35.8747 27.4342 35.7077 27.2627C35.5412 27.0917 35.325 26.9727 35.0871 26.921C34.8496 26.8648 34.6 26.8772 34.3698 26.9567C34.1402 27.036 33.94 27.1784 33.7943 27.3663C33.6732 27.5104 33.5739 27.6703 33.4995 27.8412C33.3306 28.2092 33.1603 28.5782 32.9895 28.9481L32.9865 28.9545C32.5601 29.8781 32.1308 30.8079 31.7139 31.745L31.7127 31.748C31.4568 32.3556 31.2456 32.9958 31.0351 33.6341C30.993 33.7615 30.951 33.8889 30.9086 34.0159C30.8326 34.2173 30.7994 34.4312 30.8108 34.6451C30.797 34.8366 30.8447 35.0276 30.9477 35.1923C31.0527 35.3603 31.21 35.4926 31.3974 35.5704C31.596 35.654 31.8181 35.6717 32.0284 35.6208C32.2383 35.57 32.4247 35.4537 32.5583 35.2903C32.7288 35.0889 32.8755 34.8693 32.9952 34.6367C33.3483 33.9434 33.6857 33.2418 34.0216 32.5431C34.1516 32.2729 34.2779 32.0309 34.4216 31.7673C34.4315 31.7998 34.4416 31.8315 34.452 31.8633C34.6026 32.4996 34.8568 33.1091 35.2052 33.6695C35.2711 33.7882 35.363 33.8919 35.4744 33.9736C35.5872 34.0563 35.7174 34.1143 35.8559 34.1437C35.9944 34.1732 36.138 34.1733 36.2766 34.1441C36.415 34.115 36.5455 34.0569 36.6584 33.9747L36.8818 33.8142L38.6156 32.4125L38.5131 33.0396C38.3724 33.9016 38.2327 34.7565 38.0843 35.6115C37.9872 35.9905 37.9874 36.3863 38.0847 36.7652C38.1269 36.9784 38.2343 37.1747 38.3933 37.329C38.5537 37.4847 38.759 37.5904 38.9827 37.6326C39.2064 37.6747 39.4382 37.6513 39.6479 37.5655C39.8545 37.4809 40.0303 37.3395 40.1532 37.1592C40.4391 36.8188 40.617 36.4066 40.6659 35.9718C40.7395 35.3578 40.8226 34.7355 40.9058 34.1133C41.0016 33.3961 41.0974 32.6792 41.1783 31.976L41.1786 31.9738C41.2565 31.204 41.2942 30.4311 41.2915 29.6578C41.3086 29.4134 41.2452 29.1699 41.1101 28.9618C40.9746 28.753 40.7738 28.5907 40.5365 28.4978C40.2897 28.3901 40.0134 28.3613 39.7483 28.4158C39.4849 28.4698 39.2464 28.6031 39.0676 28.7961C38.7478 29.08 38.4478 29.3838 38.1695 29.7055L38.1676 29.7076C37.8638 30.071 37.562 30.4415 37.2622 30.8096C37.0799 31.0333 36.8982 31.2566 36.7174 31.4764Z" fill="#3A3B7B"/>
</g>
<defs>
<clipPath id="clip0_211_827">
<rect width="47" height="29" fill="white" transform="translate(1 9.8468)"/>
</clipPath>
</defs>
</svg>
