<svg width="55" height="48" viewBox="0 0 55 48" fill="none" xmlns="http://www.w3.org/2000/svg">
<g clip-path="url(#clip0_211_823)">
<path d="M54.9957 19.5165C55.0015 19.4748 55.0015 19.4326 54.9957 19.3909C55.0011 19.3569 55.0011 19.3223 54.9957 19.2882L54.5883 16.3556C54.5295 16.0047 54.3723 15.6768 54.1344 15.4085L54.0645 15.3286L53.9365 15.2031L46.8829 9.24648L47.0808 9.44048C46.9189 9.2506 46.7157 9.09872 46.4861 8.99602C46.2565 8.89333 46.0062 8.84244 45.7539 8.8471H43.6122C43.2639 8.84034 42.9236 8.94889 42.6461 9.1552C42.3547 8.95013 42.0038 8.84213 41.6451 8.8471H39.5034C39.2225 8.84263 38.9454 8.91098 38.7001 9.04523C38.4549 9.17948 38.2501 9.37488 38.1067 9.61164C37.8855 9.94979 37.8023 10.3572 37.8738 10.7527L38.1416 12.6013C37.9642 12.5028 37.7635 12.4516 37.5596 12.453H27.1887C26.8166 12.4553 26.4531 12.5622 26.1411 12.7611C25.8395 12.9462 25.5973 13.2113 25.4428 13.5256L24.6396 12.8524C24.3235 12.5656 23.9063 12.4102 23.4757 12.4188H7.20353C6.83012 12.4254 6.46501 12.5277 6.14436 12.7155C5.70569 12.9672 5.38421 13.3764 5.24809 13.8566L0.0801167 30.802C-0.0164452 31.0812 -0.0259442 31.3824 0.0528362 31.6669C0.131617 31.9514 0.295109 32.2065 0.522426 32.3996C0.581658 32.4488 0.643851 32.4945 0.708664 32.5365C0.708664 32.5365 0.603891 32.468 0.545692 32.411L7.59931 38.379C7.89769 38.6483 8.28781 38.7988 8.69336 38.8011H25.0936C25.4681 38.7916 25.8335 38.6853 26.1528 38.493C26.3334 38.3963 26.495 38.2688 26.63 38.1165L26.6882 38.0366L26.7813 37.9225L26.8512 37.797L27.6194 38.4474C27.9135 38.706 28.2951 38.8483 28.6902 38.8468H45.1253C45.4994 38.8346 45.8641 38.7285 46.1845 38.5387C46.361 38.436 46.5217 38.3092 46.6618 38.1621L46.7199 38.0823L46.813 37.9682C46.8625 37.896 46.9055 37.8196 46.941 37.7399C46.9791 37.6707 47.0103 37.5981 47.0342 37.5231L51.7482 22.0497V21.9128C51.754 21.8597 51.754 21.8061 51.7482 21.753V21.6504C51.7539 21.6163 51.7539 21.5817 51.7482 21.5476C51.7535 21.4755 51.7535 21.403 51.7482 21.3308H53.2614C53.393 21.3426 53.5255 21.3426 53.6571 21.3308H53.7619C53.8471 21.3059 53.9291 21.2714 54.0063 21.2281H54.1227L54.3322 21.0684L54.4253 20.9999L54.5883 20.7945V20.7261L54.7047 20.532C54.6982 20.4943 54.6982 20.4557 54.7047 20.418C54.6985 20.3994 54.6985 20.3794 54.7047 20.3609C54.7294 20.294 54.7489 20.2253 54.7629 20.1555C54.7575 20.133 54.7575 20.1095 54.7629 20.087C54.7572 20.053 54.7572 20.0183 54.7629 19.9843C54.7629 19.9843 54.9957 19.5393 54.9957 19.5165Z" fill="black"/>
<path d="M23.9529 13.7197C24.0147 13.7745 24.0578 13.8465 24.0765 13.9261C24.0953 14.0057 24.0887 14.089 24.0577 14.1647L18.9013 31.0988C18.8364 31.2836 18.7036 31.4382 18.5289 31.5324C18.3867 31.6256 18.2222 31.6807 18.0516 31.6922H1.6631C1.52314 31.6856 1.39055 31.6287 1.29063 31.5324C1.23119 31.4785 1.18948 31.4084 1.17081 31.3313C1.15215 31.254 1.15741 31.1731 1.18588 31.0988L6.35385 14.1647C6.4134 13.9775 6.54206 13.8188 6.71468 13.7197C6.85918 13.6332 7.02294 13.5823 7.1919 13.5714H23.5804C23.7193 13.5727 23.8524 13.6257 23.9529 13.7197ZM15.3978 27.6869L18.4823 17.5766H9.84575L6.77286 27.6869H15.3978ZM39.5965 13.8909C39.6524 13.9546 39.7223 14.0051 39.8009 14.0387C39.8795 14.0723 39.9647 14.088 40.0505 14.0849H42.1805C42.2616 14.0856 42.3415 14.0661 42.4129 14.0282C42.4841 13.9903 42.5443 13.9351 42.5879 13.868C42.6257 13.8156 42.6524 13.7563 42.6664 13.6936C42.6804 13.6308 42.6814 13.566 42.6693 13.5029L42.2503 10.4904C42.2104 10.3509 42.1388 10.2222 42.0408 10.1138C41.9848 10.0501 41.915 9.99958 41.8364 9.966C41.7578 9.93241 41.6725 9.91663 41.5869 9.91982H39.4568C39.3757 9.91905 39.2957 9.93855 39.2245 9.97648C39.1532 10.0144 39.0929 10.0695 39.0495 10.1366C38.9679 10.2964 38.933 10.3991 38.9679 10.4904L39.3986 13.5029C39.4207 13.6496 39.4901 13.7855 39.5965 13.8909ZM46.3591 10.4676C46.3192 10.3281 46.2475 10.1994 46.1496 10.091C46.096 10.0275 46.0282 9.97701 45.9515 9.94336C45.8748 9.90972 45.7912 9.89385 45.7073 9.897H43.5656C43.4858 9.89477 43.4069 9.91374 43.3372 9.95191C43.2676 9.99008 43.2097 10.046 43.1699 10.1138C43.0924 10.215 43.0589 10.3422 43.0768 10.4676L43.5074 13.4801C43.5344 13.6252 43.603 13.7598 43.7053 13.868C43.7622 13.9305 43.8322 13.9802 43.9106 14.0137C43.989 14.0471 44.0737 14.0636 44.1592 14.062H46.3009C46.3805 14.0631 46.4589 14.0436 46.5283 14.0055C46.5978 13.9675 46.6559 13.9122 46.6967 13.8452C46.7372 13.7942 46.7654 13.7349 46.7795 13.6717C46.7937 13.6085 46.7931 13.543 46.7781 13.4801L46.3591 10.4676ZM37.7225 15.032L37.513 13.5485H27.1887C27.0266 13.5573 26.8698 13.6085 26.7347 13.6969C26.649 13.7427 26.5744 13.8062 26.5161 13.8831C26.4579 13.9599 26.4173 14.0482 26.3972 14.1419L25.5359 16.9718C25.5015 17.0426 25.4897 17.1219 25.5022 17.1993C25.5147 17.2767 25.5508 17.3486 25.6057 17.4055C25.7039 17.4959 25.832 17.5487 25.9666 17.5538H38.514L35.4295 27.6641H22.917C22.7556 27.6677 22.5985 27.7151 22.4631 27.8009C22.2984 27.9035 22.1782 28.0619 22.1255 28.246L21.2525 31.076C21.224 31.1486 21.2165 31.2275 21.2309 31.304C21.2453 31.3805 21.2809 31.4516 21.334 31.5095C21.4291 31.6061 21.5582 31.6632 21.6948 31.6693H38.1299C38.2999 31.655 38.4637 31.6001 38.6071 31.5095C38.779 31.4149 38.9079 31.26 38.9679 31.076L43.6936 15.6025H38.3743C38.2899 15.6042 38.2061 15.5888 38.1281 15.5574C38.05 15.526 37.9793 15.4792 37.9204 15.4199C37.8242 15.3165 37.7561 15.1909 37.7225 15.0548V15.032Z" fill="white"/>
</g>
<defs>
<clipPath id="clip0_211_823">
<rect width="55" height="30" fill="white" transform="translate(0 8.8468)"/>
</clipPath>
</defs>
</svg>
