<svg width="48" height="48" viewBox="0 0 48 48" fill="none" xmlns="http://www.w3.org/2000/svg">
<g clip-path="url(#clip0_211_843)">
<path d="M42.4375 11.6905C42.4375 12.1565 42.8199 12.5343 43.2917 12.5343H44.1458C44.6176 12.5343 45 12.1565 45 11.6905C45 11.2246 44.6176 10.8468 44.1458 10.8468H43.2917C42.8199 10.8468 42.4375 11.2246 42.4375 11.6905Z" fill="#212326"/>
<path d="M17.6667 37.8468H21.8161L20.6081 36.6535C20.2877 36.3371 19.8532 36.1593 19.4001 36.1593H17.6667C11.0623 36.1593 5.70833 30.8707 5.70833 24.3468C5.70833 17.8229 11.0623 12.5343 17.6667 12.5343H31.3333C37.9378 12.5343 43.2917 17.8229 43.2917 24.3468C43.2917 30.8707 37.9378 36.1593 31.3333 36.1593H26.2209C25.5413 36.1593 24.8895 35.8926 24.4089 35.4179L22.9937 34.02C22.1928 33.2288 21.1064 32.7843 19.9737 32.7843H17.6667C12.9492 32.7843 9.125 29.0067 9.125 24.3468C9.125 19.6869 12.9492 15.9093 17.6667 15.9093H31.3333C36.0508 15.9093 39.875 19.6869 39.875 24.3468C39.875 29.0067 36.0508 32.7843 31.3333 32.7843H28.0507C27.371 32.7843 26.7193 32.5176 26.2387 32.0429L24.8234 30.645C24.0225 29.8538 22.9362 29.4093 21.8035 29.4093H17.6667C14.8362 29.4093 12.5417 27.1427 12.5417 24.3468C12.5417 21.5509 14.8362 19.2843 17.6667 19.2843H31.3333C34.1638 19.2843 36.4583 21.5509 36.4583 24.3468C36.4583 27.1086 34.2194 29.354 31.4367 29.4083L31.4361 29.4093H30.1861C29.5064 29.4093 28.8547 29.1426 28.3741 28.6679L26.9588 27.27C26.3017 26.6207 25.4524 26.205 24.5429 26.0767L24.5 26.0343H17.6667C16.7232 26.0343 15.9583 25.2788 15.9583 24.3468C15.9583 23.4148 16.7232 22.6593 17.6667 22.6593H31.3333C32.2768 22.6593 33.0417 23.4148 33.0417 24.3468C33.0417 25.2788 32.2768 26.0343 31.3333 26.0343H27.9167L29.1247 27.2276C29.445 27.544 29.8795 27.7218 30.3326 27.7218H31.3333C33.2203 27.7218 34.75 26.2107 34.75 24.3468C34.75 22.4829 33.2203 20.9718 31.3333 20.9718H17.6667C15.7797 20.9718 14.25 22.4829 14.25 24.3468C14.25 26.2107 15.7797 27.7218 17.6667 27.7218H23.9389C24.6186 27.7218 25.2703 27.9885 25.7509 28.4632L27.1662 29.8611C27.9671 30.6523 29.0534 31.0968 30.1861 31.0968H31.7604V31.0838C35.3354 30.8661 38.1667 27.933 38.1667 24.3468C38.1667 20.6189 35.1072 17.5968 31.3333 17.5968H17.6667C13.8928 17.5968 10.8333 20.6189 10.8333 24.3468C10.8333 28.0748 13.8928 31.0968 17.6667 31.0968H21.8035C22.4831 31.0968 23.1349 31.3635 23.6155 31.8382L25.0307 33.2361C25.8317 34.0273 26.918 34.4718 28.0507 34.4718H31.3333C36.9943 34.4718 41.5833 29.9387 41.5833 24.3468C41.5833 18.7549 36.9943 14.2218 31.3333 14.2218H17.6667C12.0057 14.2218 7.41667 18.7549 7.41667 24.3468C7.41667 29.9387 12.0057 34.4718 17.6667 34.4718H19.9737C20.6534 34.4718 21.3051 34.7385 21.7857 35.2132L23.201 36.6111C24.0019 37.4023 25.0882 37.8468 26.2209 37.8468H31.3333C38.8812 37.8468 45 31.8027 45 24.3468C45 16.891 38.8812 10.8468 31.3333 10.8468L17.6667 10.8468C10.1188 10.8468 4 16.891 4 24.3468C4 31.8027 10.1188 37.8468 17.6667 37.8468Z" fill="#212326"/>
</g>
<defs>
<clipPath id="clip0_211_843">
<rect width="41" height="27" fill="white" transform="translate(4 10.8468)"/>
</clipPath>
</defs>
</svg>
