<svg width="44" height="30" viewBox="0 0 44 30" fill="none" xmlns="http://www.w3.org/2000/svg">
<path d="M23.2259 16.2379L16.561 27.6527L9.89611 16.2379H23.2259ZM25.0114 15.2177H8.10339L16.561 29.6717L25.0114 15.2177Z" fill="white"/>
<path d="M34.8137 2.0404L41.4786 13.4552H28.1488L34.8137 2.0404ZM34.8137 0L26.3561 14.454H43.2713L34.8137 0Z" fill="white"/>
<path d="M0 0L7.09143 12.7846L14.8406 0.321025L0 0Z" fill="#4CAF4F"/>
<path d="M16.5612 1.11987L23.9997 13.8332H9.1084L16.5612 1.11987Z" fill="#4CAF4F"/>
<path d="M25.9152 16.6089L33.3608 29.6718H18.1154L25.6838 16.6089H25.9152Z" fill="#4CAF4F"/>
<path d="M27.5271 15.8169L34.8137 28.68L42.2014 15.8169H27.5271Z" fill="#4CAF4F"/>
</svg>
