<svg width="34" height="30" viewBox="0 0 34 30" fill="none" xmlns="http://www.w3.org/2000/svg">
<path d="M17.9036 9.39388L17.9033 14.4168V14.4168V14.4752C17.9033 14.5918 17.9184 14.7048 17.9466 14.8125L17.8988 15.6303L17.8962 15.6742C17.885 15.8659 17.8103 16.0335 17.6842 16.1598L19.1268 15.2149C19.0445 15.2014 18.9624 15.1722 18.8806 15.1277L18.4844 14.9119V14.4752V14.4168V9.39388M17.9036 9.39388V9.39385L18.194 9.39386L18.4844 9.39388M17.9036 9.39388C17.9036 9.55431 18.0338 9.6843 18.194 9.6843C18.3544 9.6843 18.4844 9.554 18.4844 9.39388M17.9036 9.39388H18.194H18.4844M12.2833 8.9449L12.2833 8.94493L12.2833 8.9449ZM12.2833 8.9449C12.0703 9.31596 11.5586 9.45449 11.1849 9.23986L12.2833 8.9449ZM10.8522 9.81759L10.8516 9.81723C10.5772 9.65885 10.3794 9.3994 10.2976 9.09536L10.2974 9.09491L10.2974 9.09481L10.297 9.09327C10.2304 8.84275 10.2473 8.58066 10.3431 8.3432V8.14863C10.1722 8.44362 10.1265 8.78783 10.2149 9.11696C10.3028 9.44588 10.5141 9.72083 10.8095 9.8921L10.8522 9.81759ZM18.0957 16.571L18.1558 16.631L18.0957 16.571L18.095 16.5717C17.8442 16.822 17.5077 16.9601 17.1545 16.9601C17.1545 16.9601 17.1545 16.9601 17.1545 16.9601C16.6743 16.9601 16.2532 16.7049 16.0194 16.323C15.9954 16.3353 15.9711 16.3471 15.9465 16.3586L18.0957 16.571ZM10.9195 8.48356C10.8377 8.62527 10.8166 8.78674 10.8587 8.94399C10.8587 8.94403 10.8588 8.94408 10.8588 8.94413L10.8588 8.94426L10.859 8.94487C10.9007 9.10123 10.9992 9.23079 11.142 9.31423C11.142 9.31426 11.1421 9.31429 11.1421 9.31432L10.9195 8.48356Z" fill="#4CAF4F" stroke="#4CAF4F" stroke-width="1.33333"/>
<path d="M9.12525 21.7918C8.94667 21.8993 8.71578 21.8413 8.60905 21.663C8.5021 21.4849 8.56005 21.2537 8.73793 21.1468L9.12525 21.7918ZM4.74685 17.4271C4.76149 17.4007 4.77519 17.3761 4.78787 17.3532C4.83912 17.2609 4.87382 17.1984 4.88776 17.1733L4.96355 17.2132C4.91673 17.2976 4.87079 17.3803 4.82572 17.4615C4.79932 17.4516 4.77297 17.4402 4.74685 17.4271ZM15.1554 19.7211C15.3076 19.6297 15.415 19.4851 15.4579 19.3133C15.5007 19.1418 15.4741 18.9635 15.3829 18.8113L15.1554 19.7211Z" fill="#4CAF4F" stroke="#4CAF4F" stroke-width="1.33333"/>
<path d="M20.8527 19.0933C20.7587 19.035 20.6732 18.966 20.5976 18.888L19.8782 18.5117L19.8782 18.5116L19.8381 18.4907C19.7243 18.4311 19.6083 18.4029 19.4965 18.4026L20.8527 19.0933ZM19.1717 17.862C19.1718 17.862 19.1719 17.8619 19.1721 17.8619L19.2275 18.0842L19.2275 18.0842L19.3126 18.4256L19.3125 18.4256L19.1717 17.862ZM23.3872 24.7857C23.387 24.7856 23.3869 24.7855 23.3867 24.7854L23.3872 24.7857ZM18.845 21.1872L18.8464 21.188L18.845 21.1872Z" fill="#4CAF4F" stroke="#4CAF4F" stroke-width="1.33333"/>
</svg>
