<svg width="138" height="26" viewBox="0 0 138 26" fill="none" xmlns="http://www.w3.org/2000/svg">
<path d="M21.2197 0.0633545V25.2394H16.6222L5.66912 9.39373H5.48473V25.2394H0.161865V0.0633545H4.8332L15.7002 15.8967H15.9215V0.0633545H21.2197Z" fill="white"/>
<path d="M34.1243 25.6082C32.182 25.6082 30.5102 25.2148 29.1088 24.428C27.7156 23.6331 26.642 22.5103 25.888 21.0598C25.134 19.601 24.757 17.8759 24.757 15.8844C24.757 13.9421 25.134 12.2375 25.888 10.7705C26.642 9.30358 27.7033 8.16033 29.0719 7.3408C30.4487 6.52127 32.0632 6.1115 33.9153 6.1115C35.161 6.1115 36.3206 6.31229 37.3942 6.71386C38.476 7.10723 39.4185 7.70139 40.2216 8.49634C41.033 9.29129 41.664 10.2911 42.1147 11.4958C42.5655 12.6923 42.7908 14.0937 42.7908 15.7V17.1383H26.8469V13.893H37.8614C37.8614 13.139 37.6975 12.4711 37.3696 11.8892C37.0418 11.3073 36.587 10.8525 36.0051 10.5247C35.4315 10.1887 34.7635 10.0207 34.0014 10.0207C33.2064 10.0207 32.5016 10.2051 31.887 10.5739C31.2805 10.9344 30.8052 11.4221 30.461 12.0367C30.1168 12.6432 29.9406 13.3193 29.9324 14.0651V17.1506C29.9324 18.0849 30.1045 18.8921 30.4487 19.5723C30.8011 20.2525 31.2969 20.777 31.9361 21.1458C32.5754 21.5146 33.3335 21.699 34.2104 21.699C34.7922 21.699 35.3249 21.617 35.8084 21.4531C36.292 21.2892 36.7058 21.0434 37.05 20.7156C37.3942 20.3877 37.6565 19.9862 37.8368 19.5109L42.6802 19.8305C42.4344 20.9942 41.9303 22.0104 41.1682 22.8791C40.4142 23.7396 39.439 24.4117 38.2424 24.8952C37.0541 25.3705 35.6814 25.6082 34.1243 25.6082Z" fill="white"/>
<path d="M50.2465 6.35736L53.7132 12.9587L57.2658 6.35736H62.6379L57.1675 15.7984L62.7854 25.2394H57.4379L53.7132 18.7118L50.0499 25.2394H44.6409L50.2465 15.7984L44.8376 6.35736H50.2465Z" fill="white"/>
<path d="M73.6032 25.6082C71.6691 25.6082 70.0055 25.1984 68.6123 24.3789C67.2272 23.5511 66.1619 22.4038 65.4161 20.9368C64.6785 19.4699 64.3097 17.7816 64.3097 15.8721C64.3097 13.938 64.6826 12.2416 65.4284 10.7828C66.1823 9.31587 67.2518 8.17262 68.6368 7.35309C70.0219 6.52536 71.6691 6.1115 73.5786 6.1115C75.2259 6.1115 76.6683 6.41063 77.9057 7.00889C79.1432 7.60715 80.1226 8.44717 80.8438 9.52895C81.565 10.6107 81.9624 11.881 82.0362 13.3398H77.0944C76.9551 12.3973 76.5863 11.6392 75.988 11.0656C75.398 10.4837 74.6235 10.1928 73.6647 10.1928C72.8533 10.1928 72.1444 10.414 71.538 10.8566C70.9397 11.2909 70.4726 11.9261 70.1366 12.762C69.8006 13.5979 69.6326 14.61 69.6326 15.7984C69.6326 17.0031 69.7965 18.0275 70.1243 18.8716C70.4603 19.7157 70.9315 20.3591 71.538 20.8016C72.1444 21.2442 72.8533 21.4654 73.6647 21.4654C74.2629 21.4654 74.7997 21.3425 75.2751 21.0966C75.7586 20.8508 76.156 20.4943 76.4675 20.0272C76.7871 19.5518 76.9961 18.9823 77.0944 18.3184H82.0362C81.9542 19.7608 81.5609 21.0311 80.8561 22.1293C80.1595 23.2192 79.1965 24.0715 77.9672 24.6862C76.7379 25.3008 75.2832 25.6082 73.6032 25.6082Z" fill="white"/>
<path d="M93.9942 25.6082C92.0519 25.6082 90.3801 25.2148 88.9786 24.428C87.5854 23.6331 86.5119 22.5103 85.7579 21.0598C85.0039 19.601 84.6269 17.8759 84.6269 15.8844C84.6269 13.9421 85.0039 12.2375 85.7579 10.7705C86.5119 9.30358 87.5732 8.16033 88.9418 7.3408C90.3186 6.52127 91.9331 6.1115 93.7852 6.1115C95.0309 6.1115 96.1905 6.31229 97.2641 6.71386C98.3459 7.10723 99.2884 7.70139 100.092 8.49634C100.903 9.29129 101.534 10.2911 101.985 11.4958C102.435 12.6923 102.661 14.0937 102.661 15.7V17.1383H86.7167V13.893H97.7312C97.7312 13.139 97.5673 12.4711 97.2395 11.8892C96.9117 11.3073 96.4569 10.8525 95.875 10.5247C95.3013 10.1887 94.6334 10.0207 93.8713 10.0207C93.0763 10.0207 92.3715 10.2051 91.7569 10.5739C91.1504 10.9344 90.6751 11.4221 90.3309 12.0367C89.9867 12.6432 89.8105 13.3193 89.8023 14.0651V17.1506C89.8023 18.0849 89.9744 18.8921 90.3186 19.5723C90.671 20.2525 91.1668 20.777 91.806 21.1458C92.4453 21.5146 93.2033 21.699 94.0802 21.699C94.6621 21.699 95.1948 21.617 95.6783 21.4531C96.1618 21.2892 96.5757 21.0434 96.9199 20.7156C97.2641 20.3877 97.5264 19.9862 97.7067 19.5109L102.55 19.8305C102.304 20.9942 101.8 22.0104 101.038 22.8791C100.284 23.7396 99.3089 24.4117 98.1123 24.8952C96.924 25.3705 95.5513 25.6082 93.9942 25.6082Z" fill="white"/>
<path d="M111.315 14.3232V25.2394H106.078V6.35736H111.069V9.68876H111.29C111.708 8.59059 112.409 7.72188 113.393 7.08265C114.376 6.43522 115.568 6.1115 116.97 6.1115C118.281 6.1115 119.424 6.39834 120.4 6.97201C121.375 7.54568 122.133 8.36521 122.674 9.43061C123.215 10.4878 123.485 11.7499 123.485 13.2168V25.2394H118.248V14.1511C118.256 12.9956 117.961 12.0941 117.363 11.4467C116.765 10.791 115.941 10.4632 114.892 10.4632C114.187 10.4632 113.565 10.6148 113.024 10.9181C112.491 11.2213 112.073 11.6638 111.77 12.2457C111.475 12.8194 111.323 13.5119 111.315 14.3232Z" fill="white"/>
<path d="M137.656 6.35736V10.2911H126.285V6.35736H137.656ZM128.866 1.83354H134.103V19.4371C134.103 19.9206 134.177 20.2976 134.324 20.568C134.472 20.8303 134.677 21.0147 134.939 21.1212C135.209 21.2278 135.521 21.281 135.873 21.281C136.119 21.281 136.365 21.2606 136.611 21.2196C136.857 21.1704 137.045 21.1335 137.176 21.1089L138 25.0058C137.738 25.0878 137.369 25.182 136.894 25.2885C136.418 25.4033 135.841 25.4729 135.16 25.4975C133.898 25.5467 132.792 25.3787 131.841 24.9935C130.899 24.6083 130.165 24.0101 129.641 23.1987C129.116 22.3874 128.858 21.363 128.866 20.1255V1.83354Z" fill="white"/>
</svg>
