<svg width="16" height="14" viewBox="0 0 16 14" fill="none" xmlns="http://www.w3.org/2000/svg">
<path fill-rule="evenodd" clip-rule="evenodd" d="M7.5208 3.67673L7.55438 4.23037L6.99479 4.16257C4.95791 3.9027 3.17843 3.0214 1.66756 1.54128L0.928908 0.80686L0.73865 1.3492C0.33575 2.55816 0.593158 3.83491 1.43253 4.69361C1.8802 5.16816 1.77948 5.23595 1.00725 4.95348C0.73865 4.86309 0.503625 4.7953 0.481242 4.8292C0.4029 4.90829 0.6715 5.93647 0.884142 6.34322C1.17513 6.90816 1.76828 7.46179 2.4174 7.78945L2.96579 8.04932L2.31668 8.06062C1.68994 8.06062 1.66756 8.07192 1.73471 8.30919C1.95854 9.04361 2.84268 9.82322 3.82755 10.1622L4.52143 10.3995L3.91708 10.761C3.02175 11.2808 1.96973 11.5745 0.917717 11.5971C0.414092 11.6084 0 11.6536 0 11.6875C0 11.8005 1.36538 12.4332 2.15999 12.6818C4.54382 13.4162 7.37531 13.0998 9.50173 11.8457C11.0126 10.9531 12.5235 9.17919 13.2286 7.46179C13.6091 6.5466 13.9896 4.87439 13.9896 4.07218C13.9896 3.55244 14.0232 3.48465 14.6499 2.86322C15.0192 2.50166 15.3662 2.10621 15.4333 1.99322C15.5452 1.77855 15.534 1.77855 14.9633 1.97063C14.012 2.30959 13.8777 2.26439 14.3477 1.75595C14.6947 1.39439 15.1088 0.739068 15.1088 0.54699C15.1088 0.513094 14.9409 0.569588 14.7506 0.671276C14.5492 0.784263 14.1015 0.953743 13.7658 1.05543L13.1614 1.24751L12.613 0.874652C12.3108 0.671276 11.8856 0.445302 11.6617 0.37751C11.0909 0.219328 10.218 0.241925 9.70318 0.422705C8.30422 0.931146 7.42008 2.24179 7.5208 3.67673Z" fill="white"/>
</svg>
