<svg width="18" height="14" viewBox="0 0 18 14" fill="none" xmlns="http://www.w3.org/2000/svg">
<path fill-rule="evenodd" clip-rule="evenodd" d="M15.6677 1.1714C16.4021 1.3729 16.9804 1.96665 17.1767 2.72066C17.5333 4.0872 17.5333 6.93851 17.5333 6.93851C17.5333 6.93851 17.5333 9.78972 17.1767 11.1564C16.9804 11.9104 16.4021 12.5041 15.6677 12.7057C14.3369 13.0718 9.00001 13.0718 9.00001 13.0718C9.00001 13.0718 3.66309 13.0718 2.33218 12.7057C1.59783 12.5041 1.0195 11.9104 0.823232 11.1564C0.466675 9.78972 0.466675 6.93851 0.466675 6.93851C0.466675 6.93851 0.466675 4.0872 0.823232 2.72066C1.0195 1.96665 1.59783 1.3729 2.33218 1.1714C3.66309 0.805176 9.00001 0.805176 9.00001 0.805176C9.00001 0.805176 14.3369 0.805176 15.6677 1.1714ZM7.40002 4.53845V9.87179L11.6667 7.20522L7.40002 4.53845Z" fill="white"/>
</svg>
